<?xml version="1.0" standalone="no"?><!-- Generator: Gravit.io --><svg xmlns="http://www.w3.org/2000/svg" xmlns:xlink="http://www.w3.org/1999/xlink" style="isolation:isolate" viewBox="0 0 150 150" width="150" height="150"><defs><clipPath id="_clipPath_nNA1NXK31mJZt57uOB2JHJ07CGTEB2nv"><rect width="150" height="150"/></clipPath></defs><g clip-path="url(#_clipPath_nNA1NXK31mJZt57uOB2JHJ07CGTEB2nv)"><g><g><rect x="49.707" y="108.237" width="20.998" height="5.003" transform="matrix(1,0,0,1,0,0)" fill="rgb(162,221,211)"/><path d=" M 94.478 108.365 L 18.429 108.365 C 11.806 108.365 6.387 102.946 6.387 96.323 L 6.387 37.503 C 6.387 30.88 11.806 25.461 18.429 25.461 L 102.2 25.461 C 108.823 25.461 114.242 30.88 114.242 37.503 L 114.242 60.038" fill="none" vector-effect="non-scaling-stroke" stroke-width="1" stroke="rgb(54,186,166)" stroke-linejoin="round" stroke-linecap="round" stroke-miterlimit="10"/><path d=" M 94.478 91.115 L 18.508 91.115 C 14.95 91.115 12.039 88.205 12.039 84.647 L 12.039 37.843 C 12.039 34.285 14.95 31.373 18.509 31.373 L 102.122 31.373 C 105.68 31.373 108.591 34.284 108.591 37.842 L 108.591 59.517" fill="none" vector-effect="non-scaling-stroke" stroke-width="1" stroke="rgb(54,186,166)" stroke-linejoin="round" stroke-linecap="round" stroke-miterlimit="10"/><g opacity="0.3"><path d=" M 12.038 39.895 L 12.038 37.843 C 12.038 34.285 14.949 31.373 18.508 31.373 L 102.121 31.373 C 105.679 31.373 108.59 34.284 108.59 37.842 L 108.59 39.895 L 12.038 39.895 Z " fill="rgb(82,138,200)"/></g><path d=" M 12.038 39.895 L 12.038 37.843 C 12.038 34.285 14.949 31.373 18.508 31.373 L 102.121 31.373 C 105.679 31.373 108.59 34.284 108.59 37.842 L 108.59 39.895 L 12.038 39.895 Z " fill="rgb(193,233,227)" vector-effect="non-scaling-stroke" stroke-width="1" stroke="rgb(54,186,166)" stroke-linejoin="round" stroke-linecap="round" stroke-miterlimit="10"/><circle vector-effect="non-scaling-stroke" cx="60.3149977865219" cy="99.98850163269043" r="3.604999999999997" fill="rgb(162,221,211)"/><circle vector-effect="non-scaling-stroke" cx="60.3149977865219" cy="99.98850163269043" r="3.604999999999997" fill="rgb(193,233,227)" stroke-width="1" stroke="rgb(54,186,166)" stroke-linejoin="round" stroke-linecap="round" stroke-miterlimit="10"/><path d=" M 70.857 108.623 C 70.857 108.623 68.953 120.931 78.325 120.931 C 66.904 120.931 59.582 120.931 59.582 120.931 L 60.753 120.931 C 60.753 120.931 53.725 120.931 42.303 120.931 C 51.674 120.931 49.624 108.751 49.624 108.751" fill="none" vector-effect="non-scaling-stroke" stroke-width="1" stroke="rgb(54,186,166)" stroke-linejoin="round" stroke-linecap="round" stroke-miterlimit="10"/><rect x="19.284" y="46.303" width="35.955" height="13.434" transform="matrix(1,0,0,1,0,0)" fill="none" vector-effect="non-scaling-stroke" stroke-width="1" stroke="rgb(54,186,166)" stroke-linejoin="round" stroke-linecap="round" stroke-miterlimit="2"/><g><line x1="61.106" y1="47.931" x2="91.106" y2="47.931" vector-effect="non-scaling-stroke" stroke-width="1" stroke="rgb(54,186,166)" stroke-linejoin="round" stroke-linecap="round" stroke-miterlimit="10"/><line x1="61.106" y1="53.931" x2="96.106" y2="53.931" vector-effect="non-scaling-stroke" stroke-width="1" stroke="rgb(54,186,166)" stroke-linejoin="round" stroke-linecap="round" stroke-miterlimit="10"/><line x1="61.106" y1="57.931" x2="91.106" y2="57.931" vector-effect="non-scaling-stroke" stroke-width="1" stroke="rgb(54,186,166)" stroke-linejoin="round" stroke-linecap="round" stroke-miterlimit="10"/></g><rect x="19.284" y="67.146" width="17.978" height="17.978" transform="matrix(1,0,0,1,0,0)" fill="rgb(162,221,211)"/><rect x="19.284" y="67.146" width="17.978" height="17.978" transform="matrix(1,0,0,1,0,0)" fill="none" vector-effect="non-scaling-stroke" stroke-width="1" stroke="rgb(54,186,166)" stroke-linejoin="round" stroke-linecap="round" stroke-miterlimit="2"/><rect x="43.781" y="67.146" width="17.978" height="17.978" transform="matrix(1,0,0,1,0,0)" fill="none" vector-effect="non-scaling-stroke" stroke-width="1" stroke="rgb(54,186,166)" stroke-linejoin="round" stroke-linecap="round" stroke-miterlimit="2"/><rect x="68.278" y="67.146" width="17.978" height="17.978" transform="matrix(1,0,0,1,0,0)" fill="none" vector-effect="non-scaling-stroke" stroke-width="1" stroke="rgb(54,186,166)" stroke-linejoin="round" stroke-linecap="round" stroke-miterlimit="2"/><path d=" M 137.473 128.255 L 99.342 128.255 C 96.69 128.255 94.52 126.086 94.52 123.434 L 94.52 64.856 C 94.52 62.204 96.69 60.034 99.342 60.034 L 137.473 60.034 C 140.125 60.034 142.295 62.204 142.295 64.856 L 142.295 123.434 C 142.295 126.086 140.125 128.255 137.473 128.255 Z " fill="none" vector-effect="non-scaling-stroke" stroke-width="1" stroke="rgb(54,186,166)" stroke-linejoin="round" stroke-linecap="round" stroke-miterlimit="10"/><path d=" M 135.848 117.28 L 100.968 117.28 C 99.251 117.28 97.858 115.888 97.858 114.17 L 97.858 67.036 C 97.858 65.319 99.25 63.926 100.968 63.926 L 135.848 63.926 C 137.565 63.926 138.958 65.318 138.958 67.036 L 138.958 114.17 C 138.957 115.888 137.565 117.28 135.848 117.28 Z " fill="none" vector-effect="non-scaling-stroke" stroke-width="1" stroke="rgb(54,186,166)" stroke-linejoin="round" stroke-linecap="round" stroke-miterlimit="10"/><circle vector-effect="non-scaling-stroke" cx="120.2019977865219" cy="122.62150163269041" r="2.206000000000003" fill="rgb(162,221,211)"/><circle vector-effect="non-scaling-stroke" cx="120.2019977865219" cy="122.62150163269041" r="2.206000000000003" fill="none" stroke-width="1" stroke="rgb(54,186,166)" stroke-linejoin="round" stroke-linecap="round" stroke-miterlimit="10"/><rect x="103.706" y="68.496" width="30.596" height="25.649" transform="matrix(1,0,0,1,0,0)" fill="rgb(162,221,211)"/><rect x="103.064" y="69.022" width="31.238" height="25.649" transform="matrix(1,0,0,1,0,0)" fill="none" vector-effect="non-scaling-stroke" stroke-width="1" stroke="rgb(54,186,166)" stroke-linejoin="round" stroke-linecap="round" stroke-miterlimit="2"/><line x1="104.106" y1="101.931" x2="128.106" y2="101.931" vector-effect="non-scaling-stroke" stroke-width="1" stroke="rgb(54,186,166)" stroke-linejoin="round" stroke-linecap="round" stroke-miterlimit="10"/><line x1="104.106" y1="105.931" x2="124.106" y2="105.931" vector-effect="non-scaling-stroke" stroke-width="1" stroke="rgb(54,186,166)" stroke-linejoin="round" stroke-linecap="round" stroke-miterlimit="10"/></g></g><path d="M -109 17 L -19 17 C -16.24 17 -14 19.24 -14 22 L -14 112 C -14 114.76 -16.24 117 -19 117 L -109 117 C -111.76 117 -114 114.76 -114 112 L -114 22 C -114 19.24 -111.76 17 -109 17 Z" style="stroke:none;fill:#36BAA6;stroke-miterlimit:10;"/><path d="M 172 28.255 L 262 28.255 C 264.76 28.255 267 30.496 267 33.255 L 267 123.255 C 267 126.015 264.76 128.255 262 128.255 L 172 128.255 C 169.24 128.255 167 126.015 167 123.255 L 167 33.255 C 167 30.496 169.24 28.255 172 28.255 Z" style="stroke:none;fill:#A2DDD3;stroke-miterlimit:10;"/></g></svg>