<?xml version="1.0" standalone="no"?><!-- Generator: Gravit.io --><svg xmlns="http://www.w3.org/2000/svg" xmlns:xlink="http://www.w3.org/1999/xlink" style="isolation:isolate" viewBox="0 0 150 150" width="150" height="150"><defs><clipPath id="_clipPath_nyfeJcFdSGcURLEa49WL2jf1lzjKTnzG"><rect width="150" height="150"/></clipPath></defs><g clip-path="url(#_clipPath_nyfeJcFdSGcURLEa49WL2jf1lzjKTnzG)"><path d="M -109 17 L -19 17 C -16.24 17 -14 19.24 -14 22 L -14 112 C -14 114.76 -16.24 117 -19 117 L -109 117 C -111.76 117 -114 114.76 -114 112 L -114 22 C -114 19.24 -111.76 17 -109 17 Z" style="stroke:none;fill:#36BAA6;stroke-miterlimit:10;"/><path d="M 172 28.255 L 262 28.255 C 264.76 28.255 267 30.496 267 33.255 L 267 123.255 C 267 126.015 264.76 128.255 262 128.255 L 172 128.255 C 169.24 128.255 167 126.015 167 123.255 L 167 33.255 C 167 30.496 169.24 28.255 172 28.255 Z" style="stroke:none;fill:#A2DDD3;stroke-miterlimit:10;"/><g><g><path d=" M 24.923 109.422 C 23.963 108.273 23.365 106.798 23.365 105.184 L 23.365 53.241 C 23.365 49.585 26.329 46.621 29.985 46.621 L 95.243 46.621" fill="none" vector-effect="non-scaling-stroke" stroke-width="1" stroke="rgb(54,186,166)" stroke-linejoin="round" stroke-linecap="round" stroke-miterlimit="10"/><path d=" M 125.101 72.436 L 125.101 105.184 C 125.101 106.805 124.534 108.271 123.567 109.422" fill="none" vector-effect="non-scaling-stroke" stroke-width="1" stroke="rgb(54,186,166)" stroke-linejoin="round" stroke-linecap="round" stroke-miterlimit="10"/><path d=" M 121.218 78.021 L 121.218 98.816 C 121.218 102.472 118.254 105.436 114.598 105.436 L 33.869 105.436 C 30.213 105.436 27.249 102.472 27.249 98.816 L 27.249 56.648 C 27.249 52.992 30.213 50.028 33.869 50.028 L 95.716 50.028" fill="none" vector-effect="non-scaling-stroke" stroke-width="1" stroke="rgb(54,186,166)" stroke-linejoin="round" stroke-linecap="round" stroke-miterlimit="10"/><path d=" M 132.706 109.422 L 15.761 109.422 C 14.106 109.422 12.764 110.764 12.764 112.419 L 12.764 112.635 C 12.764 114.29 14.106 115.632 15.761 115.632 L 132.705 115.632 C 134.36 115.632 135.702 114.29 135.702 112.635 L 135.702 112.419 C 135.703 110.764 134.361 109.422 132.706 109.422 Z " fill="none" vector-effect="non-scaling-stroke" stroke-width="1" stroke="rgb(54,186,166)" stroke-linejoin="round" stroke-linecap="round" stroke-miterlimit="10"/><g opacity="0.3"><path d=" M 93.31 112.528 L 55.157 112.528 C 54.333 112.528 53.658 111.854 53.658 111.029 L 53.658 110.921 C 53.658 110.097 54.332 109.422 55.157 109.422 L 93.31 109.422 C 94.134 109.422 94.809 110.096 94.809 110.921 L 94.809 111.029 C 94.808 111.853 94.134 112.528 93.31 112.528 Z " fill="rgb(82,138,200)"/></g><path d=" M 93.31 112.528 L 55.157 112.528 C 54.333 112.528 53.658 111.854 53.658 111.029 L 53.658 110.921 C 53.658 110.097 54.332 109.422 55.157 109.422 L 93.31 109.422 C 94.134 109.422 94.809 110.096 94.809 110.921 L 94.809 111.029 C 94.808 111.853 94.134 112.528 93.31 112.528 Z " fill="rgb(162,221,211)" vector-effect="non-scaling-stroke" stroke-width="1" stroke="rgb(54,186,166)" stroke-linejoin="round" stroke-linecap="round" stroke-miterlimit="10"/><line x1="37.564" y1="60.135" x2="72.564" y2="60.135" vector-effect="non-scaling-stroke" stroke-width="1" stroke="rgb(54,186,166)" stroke-linejoin="round" stroke-linecap="round" stroke-miterlimit="10"/><line x1="37.564" y1="70.135" x2="77.564" y2="70.135" vector-effect="non-scaling-stroke" stroke-width="1" stroke="rgb(54,186,166)" stroke-linejoin="round" stroke-linecap="round" stroke-miterlimit="10"/><g><path d=" M 134.005 54.925 L 137.236 54.048 L 135.168 46.433 L 131.452 47.442 C 130.407 45.545 129.206 44.07 127.846 42.845 L 129.729 39.31 L 122.781 35.259 L 120.872 38.576 C 118.761 37.906 116.412 37.586 114.255 37.672 L 113.358 34.368 L 106.251 36.298 L 107.148 39.602 C 104.229 40.895 103.008 42.14 101.526 43.785 L 97.994 41.901 L 93.945 48.848 L 97.362 51.123 C 96.808 52.868 96.477 54.759 96.535 56.924 L 92.524 58.013 L 94.592 65.628 L 98.118 64.67 C 99.198 67.102 100.716 68.99 102.64 70.723 L 100.671 73.944 L 107.576 77.838 L 109.824 74.345 C 111.935 75.015 113.608 75.434 116.78 75.073 L 117.83 78.939 L 124.937 77.009 L 123.887 73.143 C 125.791 72.125 127.667 70.703 129.149 69.057 L 132.501 70.99 L 136.46 64.067 L 133.168 62.431 C 133.953 59.964 134.304 57.57 134.005 54.925 Z  M 118.1 67.886 C 111.788 69.6 105.281 65.873 103.567 59.561 C 101.853 53.249 105.58 46.742 111.892 45.027 C 118.204 43.313 124.711 47.04 126.426 53.352 C 128.14 59.665 124.412 66.172 118.1 67.886 Z " fill="none" vector-effect="non-scaling-stroke" stroke-width="1" stroke="rgb(61,108,180)" stroke-linejoin="round" stroke-linecap="round" stroke-miterlimit="10"/><path d=" M 134.005 54.925 L 137.236 54.048 L 135.168 46.433 L 131.452 47.442 C 130.407 45.545 129.206 44.07 127.846 42.845 L 129.729 39.31 L 122.781 35.259 L 120.872 38.576 C 118.761 37.906 116.412 37.586 114.255 37.672 L 113.358 34.368 L 106.251 36.298 L 107.148 39.602 C 104.229 40.895 103.008 42.14 101.526 43.785 L 97.994 41.901 L 93.945 48.848 L 97.362 51.123 C 96.808 52.868 96.477 54.759 96.535 56.924 L 92.524 58.013 L 94.592 65.628 L 98.118 64.67 C 99.198 67.102 100.716 68.99 102.64 70.723 L 100.671 73.944 L 107.576 77.838 L 109.824 74.345 C 111.935 75.015 113.608 75.434 116.78 75.073 L 117.83 78.939 L 124.937 77.009 L 123.887 73.143 C 125.791 72.125 127.667 70.703 129.149 69.057 L 132.501 70.99 L 136.46 64.067 L 133.168 62.431 C 133.953 59.964 134.304 57.57 134.005 54.925 Z  M 118.1 67.886 C 111.788 69.6 105.281 65.873 103.567 59.561 C 101.853 53.249 105.58 46.742 111.892 45.027 C 118.204 43.313 124.711 47.04 126.426 53.352 C 128.14 59.665 124.412 66.172 118.1 67.886 Z " fill="rgb(162,221,211)" vector-effect="non-scaling-stroke" stroke-width="1" stroke="rgb(54,186,166)" stroke-linejoin="miter" stroke-linecap="butt" stroke-miterlimit="4"/></g><line x1="37.564" y1="79.135" x2="91.564" y2="79.135" vector-effect="non-scaling-stroke" stroke-width="1" stroke="rgb(54,186,166)" stroke-linejoin="round" stroke-linecap="round" stroke-miterlimit="10"/><path d=" M 109.177 97.44 L 39.29 97.44 C 37.961 97.44 36.873 96.353 36.873 95.023 L 36.873 89.841 C 36.873 88.512 37.961 87.424 39.29 87.424 L 109.177 87.424 C 110.506 87.424 111.594 88.511 111.594 89.841 L 111.594 95.023 C 111.594 96.353 110.506 97.44 109.177 97.44 Z " fill="rgb(162,221,211)"/></g></g></g></svg>