<?xml version="1.0" standalone="no"?><!-- Generator: Gravit.io --><svg xmlns="http://www.w3.org/2000/svg" xmlns:xlink="http://www.w3.org/1999/xlink" style="isolation:isolate" viewBox="0 0 150 150" width="150" height="150"><defs><clipPath id="_clipPath_Mp2LHseX0tgIS17b3RUku9jF20Q6yQ19"><rect width="150" height="150"/></clipPath></defs><g clip-path="url(#_clipPath_Mp2LHseX0tgIS17b3RUku9jF20Q6yQ19)"><path d="M -109 17 L -19 17 C -16.24 17 -14 19.24 -14 22 L -14 112 C -14 114.76 -16.24 117 -19 117 L -109 117 C -111.76 117 -114 114.76 -114 112 L -114 22 C -114 19.24 -111.76 17 -109 17 Z" style="stroke:none;fill:#36BAA6;stroke-miterlimit:10;"/><path d="M 172 28.255 L 262 28.255 C 264.76 28.255 267 30.496 267 33.255 L 267 123.255 C 267 126.015 264.76 128.255 262 128.255 L 172 128.255 C 169.24 128.255 167 126.015 167 123.255 L 167 33.255 C 167 30.496 169.24 28.255 172 28.255 Z" style="stroke:none;fill:#A2DDD3;stroke-miterlimit:10;"/><g><g><path d=" M 124.262 131.402 L 66.191 131.423 C 61.858 131.423 58.313 127.878 58.313 123.545 L 58.307 121.469" fill="none" vector-effect="non-scaling-stroke" stroke-width="1" stroke="rgb(54,186,166)" stroke-linejoin="round" stroke-linecap="round" stroke-miterlimit="10"/><path d=" M 58.312 81.001 L 58.312 21.698 C 58.312 17.365 61.857 13.82 66.19 13.82 L 135.201 13.82 C 139.534 13.82 143.079 17.365 143.079 21.698 L 143.079 123.545 C 143.079 127.878 139.534 131.423 135.201 131.423 L 131.849 131.423" fill="none" vector-effect="non-scaling-stroke" stroke-width="1" stroke="rgb(54,186,166)" stroke-linejoin="round" stroke-linecap="round" stroke-miterlimit="10"/><path d=" M 58.312 27.188 L 58.312 21.698 C 58.312 17.365 61.857 13.82 66.19 13.82 L 135.201 13.82 C 139.534 13.82 143.079 17.365 143.079 21.698 L 143.079 27.188 L 58.312 27.188 Z " fill="rgb(162,221,211)"/><path d=" M 58.312 27.188 L 58.312 21.698 C 58.312 17.365 61.857 13.82 66.19 13.82 L 135.201 13.82 C 139.534 13.82 143.079 17.365 143.079 21.698 L 143.079 27.188 L 58.312 27.188 Z " fill="none" vector-effect="non-scaling-stroke" stroke-width="1" stroke="rgb(54,186,166)" stroke-linejoin="round" stroke-linecap="round" stroke-miterlimit="10"/><g><path d=" M 131.852 136.18 L 124.263 136.18 L 124.263 75.475 L 128.058 68.054 L 131.852 75.475 L 131.852 136.18 Z " fill="none" vector-effect="non-scaling-stroke" stroke-width="1" stroke="rgb(61,108,180)" stroke-linejoin="round" stroke-linecap="round" stroke-miterlimit="10"/><line x1="124.263" y1="76.814" x2="131.852" y2="76.814" vector-effect="non-scaling-stroke" stroke-width="1" stroke="rgb(61,108,180)" stroke-linejoin="round" stroke-linecap="round" stroke-miterlimit="10"/><line x1="124.263" y1="127.699" x2="131.852" y2="127.699" vector-effect="non-scaling-stroke" stroke-width="1" stroke="rgb(61,108,180)" stroke-linejoin="round" stroke-linecap="round" stroke-miterlimit="10"/><line x1="124.263" y1="122.343" x2="131.852" y2="122.343" vector-effect="non-scaling-stroke" stroke-width="1" stroke="rgb(61,108,180)" stroke-linejoin="round" stroke-linecap="round" stroke-miterlimit="10"/></g><rect x="124.263" y="122.343" width="7.588" height="5.356" transform="matrix(1,0,0,1,0,0)" fill="rgb(162,221,211)"/><g><line x1="124.263" y1="76.814" x2="131.852" y2="76.814" vector-effect="non-scaling-stroke" stroke-width="1" stroke="rgb(61,108,180)" stroke-linejoin="round" stroke-linecap="round" stroke-miterlimit="10"/><path d=" M 131.852 136.18 L 124.263 136.18 L 124.263 75.475 L 128.058 68.054 L 131.852 75.475 L 131.852 136.18 Z " fill="none" vector-effect="non-scaling-stroke" stroke-width="1" stroke="rgb(54,186,166)" stroke-linejoin="round" stroke-linecap="round" stroke-miterlimit="10"/><line x1="124.263" y1="127.699" x2="131.852" y2="127.699" vector-effect="non-scaling-stroke" stroke-width="1" stroke="rgb(61,108,180)" stroke-linejoin="round" stroke-linecap="round" stroke-miterlimit="10"/><line x1="124.263" y1="122.343" x2="131.852" y2="122.343" vector-effect="non-scaling-stroke" stroke-width="1" stroke="rgb(61,108,180)" stroke-linejoin="round" stroke-linecap="round" stroke-miterlimit="10"/></g><g><path d=" M 131.852 76.814 L 124.263 76.814 L 124.263 75.475 L 128.058 68.054 L 131.852 75.475 L 131.852 76.814 Z " fill="rgb(162,221,211)" vector-effect="non-scaling-stroke" stroke-width="1" stroke="rgb(54,186,166)" stroke-linejoin="miter" stroke-linecap="butt" stroke-miterlimit="4"/><line x1="124.263" y1="76.814" x2="131.852" y2="76.814" vector-effect="non-scaling-stroke" stroke-width="1" stroke="rgb(54,186,166)" stroke-linejoin="round" stroke-linecap="round" stroke-miterlimit="10"/><line x1="124.263" y1="127.699" x2="131.852" y2="127.699" vector-effect="non-scaling-stroke" stroke-width="1" stroke="rgb(54,186,166)" stroke-linejoin="round" stroke-linecap="round" stroke-miterlimit="10"/><line x1="124.263" y1="122.343" x2="131.852" y2="122.343" vector-effect="non-scaling-stroke" stroke-width="1" stroke="rgb(54,186,166)" stroke-linejoin="round" stroke-linecap="round" stroke-miterlimit="10"/></g><g><rect x="6.922" y="81.006" width="73.645" height="40.462" transform="matrix(1,0,0,1,0,0)" fill="none" vector-effect="non-scaling-stroke" stroke-width="1" stroke="rgb(54,186,166)" stroke-linejoin="round" stroke-linecap="round" stroke-miterlimit="2"/><g><rect x="14.629" y="89.795" width="19.053" height="22.8" transform="matrix(1,0,0,1,0,0)" fill="rgb(162,221,211)"/><rect x="14.629" y="89.795" width="19.053" height="22.8" transform="matrix(1,0,0,1,0,0)" fill="none" vector-effect="non-scaling-stroke" stroke-width="1" stroke="rgb(54,186,166)" stroke-linejoin="round" stroke-linecap="round" stroke-miterlimit="2"/></g><g><g><line x1="42.736" y1="91.02" x2="73.736" y2="91.02" vector-effect="non-scaling-stroke" stroke-width="1" stroke="rgb(54,186,166)" stroke-linejoin="round" stroke-linecap="round" stroke-miterlimit="10"/><line x1="42.736" y1="99.02" x2="63.736" y2="99.02" vector-effect="non-scaling-stroke" stroke-width="1" stroke="rgb(54,186,166)" stroke-linejoin="round" stroke-linecap="round" stroke-miterlimit="10"/></g><g><circle vector-effect="non-scaling-stroke" cx="45.144500000000015" cy="109.23599999999999" r="2.256999999999998" fill="none" stroke-width="1" stroke="rgb(54,186,166)" stroke-linejoin="round" stroke-linecap="round" stroke-miterlimit="10"/><circle vector-effect="non-scaling-stroke" cx="55.42050000000001" cy="109.23599999999999" r="2.256999999999998" fill="none" stroke-width="1" stroke="rgb(54,186,166)" stroke-linejoin="round" stroke-linecap="round" stroke-miterlimit="10"/><circle vector-effect="non-scaling-stroke" cx="65.69650000000001" cy="109.23599999999999" r="2.2570000000000014" fill="none" stroke-width="1" stroke="rgb(54,186,166)" stroke-linejoin="round" stroke-linecap="round" stroke-miterlimit="10"/></g></g></g></g></g><path d="M 95.765 17 L 107.235 17 C 108.761 17 110 18.239 110 19.765 L 110 21.235 C 110 22.761 108.761 24 107.235 24 L 95.765 24 C 94.239 24 93 22.761 93 21.235 L 93 19.765 C 93 18.239 94.239 17 95.765 17 Z" style="stroke:none;fill:#A2DDD3;stroke-miterlimit:10;"/><path d="M 95.765 17 L 107.235 17 C 108.761 17 110 18.239 110 19.765 L 110 21.235 C 110 22.761 108.761 24 107.235 24 L 95.765 24 C 94.239 24 93 22.761 93 21.235 L 93 19.765 C 93 18.239 94.239 17 95.765 17 Z" style="fill:none;stroke:#36BAA6;stroke-width:1;stroke-linecap:square;stroke-miterlimit:2;"/><path d=" M 124 66 Q 118.4 42.6 113 43 C 104.952 43.596 106.372 59.36 102 60 C 97.9 60.6 95.4 49.6 86 49 C 79.363 48.576 72.4 60.6 70 67" fill="none" vector-effect="non-scaling-stroke" stroke-width="1" stroke="rgb(54,186,166)" stroke-linejoin="miter" stroke-linecap="square" stroke-miterlimit="3"/></g></svg>